<mxfile host="app.diagrams.net" modified="2024-03-04T21:04:00.885Z" agent="Mozilla/5.0 (Windows NT 10.0; Win64; x64) AppleWebKit/537.36 (KHTML, like Gecko) Chrome/122.0.0.0 Safari/537.36" etag="xhpHDfZRAEMkpGdph18Y" version="24.0.0" type="device">
  <diagram id="_PEk_CUn_BOVteKDAQKi" name="Page-1">
    <mxGraphModel dx="-2127" dy="-1857" grid="1" gridSize="10" guides="1" tooltips="1" connect="0" arrows="1" fold="1" page="1" pageScale="1" pageWidth="3300" pageHeight="2339" math="0" shadow="0">
      <root>
        <mxCell id="0" />
        <mxCell id="1" parent="0" />
        <mxCell id="5gEw2VkLYhCX0uYDMpLy-138" value="" style="verticalAlign=middle;align=center;vsdxID=1;fillColor=none;gradientColor=none;shape=stencil(nZBLDoAgDERP0z3SIyjew0SURgSD+Lu9kMZoXLhwN9O+tukAlrNpJg1SzDH4QW/URgNYgZTkjA4UkwJUgGXng+6DX1zLfmoymdXo17xh5zmRJ6Q42BWCfc2oJfdAr+Yv+AP9Cb7OJ3H/2JG1HNGz/84klThPVCc=);strokeColor=#000000;strokeWidth=3;labelBackgroundColor=none;rounded=0;html=1;whiteSpace=wrap;movable=0;resizable=0;rotatable=0;deletable=0;editable=0;locked=1;connectable=0;" parent="1" vertex="1">
          <mxGeometry x="3400.06" y="2360" width="3179.94" height="2300" as="geometry" />
        </mxCell>
        <mxCell id="5gEw2VkLYhCX0uYDMpLy-129" value="" style="group" parent="1" vertex="1" connectable="0">
          <mxGeometry x="5957" y="4429" width="623" height="237" as="geometry" />
        </mxCell>
        <mxCell id="5gEw2VkLYhCX0uYDMpLy-47" value="&lt;p style=&quot;margin-left: 0 ; margin-right: 0 ; margin-top: 17px ; margin-bottom: 0px ; text-indent: 0 ; direction: ltr&quot;&gt;&lt;font style=&quot;font-size: 19px ; font-family: &amp;quot;isocpeur&amp;quot; ; color: #000000 ; direction: ltr ; letter-spacing: 0px ; line-height: 120% ; opacity: 1&quot;&gt;&lt;i&gt;КП 2-40 01 01&lt;/i&gt;&lt;/font&gt;&lt;font style=&quot;font-size: 19px ; font-family: &amp;quot;isocpeur&amp;quot; ; color: #000000 ; direction: ltr ; letter-spacing: 0px ; line-height: 120% ; opacity: 1&quot;&gt;&lt;i&gt;.3&lt;/i&gt;&lt;/font&gt;&lt;font style=&quot;font-size: 19px ; font-family: &amp;quot;isocpeur&amp;quot; ; color: #000000 ; direction: ltr ; letter-spacing: 0px ; line-height: 120% ; opacity: 1&quot;&gt;&lt;i&gt;5&lt;/i&gt;&lt;/font&gt;&lt;font style=&quot;font-size: 19px ; font-family: &amp;quot;isocpeur&amp;quot; ; color: #000000 ; direction: ltr ; letter-spacing: 0px ; line-height: 120% ; opacity: 1&quot;&gt;&lt;i&gt;.35&lt;/i&gt;&lt;/font&gt;&lt;font style=&quot;font-size: 19px ; font-family: &amp;quot;isocpeur&amp;quot; ; color: #000000 ; direction: ltr ; letter-spacing: 0px ; line-height: 120% ; opacity: 1&quot;&gt;&lt;i&gt;.16&lt;/i&gt;&lt;/font&gt;&lt;font style=&quot;font-size: 19px ; font-family: &amp;quot;isocpeur&amp;quot; ; color: #000000 ; direction: ltr ; letter-spacing: 0px ; line-height: 120% ; opacity: 1&quot;&gt;&lt;i&gt;.24&lt;/i&gt;&lt;/font&gt;&lt;font style=&quot;font-size: 19px ; font-family: &amp;quot;isocpeur&amp;quot; ; color: #000000 ; direction: ltr ; letter-spacing: 0px ; line-height: 120% ; opacity: 1&quot;&gt;&lt;i&gt;&amp;nbsp;ГЧ&lt;br&gt;&lt;/i&gt;&lt;/font&gt;&lt;/p&gt;" style="verticalAlign=middle;align=center;vsdxID=46;fillColor=none;gradientColor=none;shape=stencil(nZBLDoAgDERP0z3SIyjew0SURgSD+Lu9kMZoXLhwN9O+tukAlrNpJg1SzDH4QW/URgNYgZTkjA4UkwJUgGXng+6DX1zLfmoymdXo17xh5zmRJ6Q42BWCfc2oJfdAr+Yv+AP9Cb7OJ3H/2JG1HNGz/84klThPVCc=);strokeColor=none;labelBackgroundColor=none;rounded=0;html=1;whiteSpace=wrap;" parent="5gEw2VkLYhCX0uYDMpLy-129" vertex="1">
          <mxGeometry x="257.56" y="15" width="296.87" height="40" as="geometry" />
        </mxCell>
        <mxCell id="5gEw2VkLYhCX0uYDMpLy-128" value="" style="group" parent="5gEw2VkLYhCX0uYDMpLy-129" vertex="1" connectable="0">
          <mxGeometry y="14" width="623.0000000000001" height="223" as="geometry" />
        </mxCell>
        <mxCell id="5gEw2VkLYhCX0uYDMpLy-5" style="vsdxID=2;edgeStyle=none;startArrow=none;endArrow=none;startSize=5;endSize=5;strokeWidth=3;strokeColor=#000000;spacingTop=0;spacingBottom=0;spacingLeft=0;spacingRight=0;verticalAlign=middle;html=1;labelBackgroundColor=none;rounded=0;" parent="5gEw2VkLYhCX0uYDMpLy-128" edge="1">
          <mxGeometry relative="1" as="geometry">
            <Array as="points" />
            <mxPoint x="3.3449664429530204" y="216" as="sourcePoint" />
            <mxPoint x="3.3449664429530204" as="targetPoint" />
          </mxGeometry>
        </mxCell>
        <mxCell id="5gEw2VkLYhCX0uYDMpLy-6" style="vsdxID=3;edgeStyle=none;startArrow=none;endArrow=none;startSize=5;endSize=5;strokeWidth=3;strokeColor=#000000;spacingTop=0;spacingBottom=0;spacingLeft=0;spacingRight=0;verticalAlign=middle;html=1;labelBackgroundColor=none;rounded=0;" parent="5gEw2VkLYhCX0uYDMpLy-128" edge="1">
          <mxGeometry relative="1" as="geometry">
            <mxPoint as="offset" />
            <Array as="points" />
            <mxPoint x="3.3449664429530204" as="sourcePoint" />
            <mxPoint x="622.1637583892618" as="targetPoint" />
          </mxGeometry>
        </mxCell>
        <mxCell id="5gEw2VkLYhCX0uYDMpLy-7" style="vsdxID=4;edgeStyle=none;startArrow=none;endArrow=none;startSize=5;endSize=5;strokeWidth=3;strokeColor=#000000;spacingTop=0;spacingBottom=0;spacingLeft=0;spacingRight=0;verticalAlign=middle;html=1;labelBackgroundColor=none;rounded=0;" parent="5gEw2VkLYhCX0uYDMpLy-128" edge="1">
          <mxGeometry relative="1" as="geometry">
            <mxPoint as="offset" />
            <Array as="points" />
            <mxPoint x="3.3449664429530204" y="60" as="sourcePoint" />
            <mxPoint x="622.1637583892618" y="60" as="targetPoint" />
          </mxGeometry>
        </mxCell>
        <mxCell id="5gEw2VkLYhCX0uYDMpLy-8" value="" style="vsdxID=5;edgeStyle=none;startArrow=none;endArrow=none;startSize=5;endSize=5;strokeWidth=3;strokeColor=#000000;spacingTop=0;spacingBottom=0;spacingLeft=0;spacingRight=0;verticalAlign=middle;html=1;labelBackgroundColor=none;rounded=0;align=center;" parent="5gEw2VkLYhCX0uYDMpLy-128" edge="1">
          <mxGeometry relative="1" as="geometry">
            <mxPoint as="offset" />
            <Array as="points" />
            <mxPoint x="3.3449664429530204" y="160" as="sourcePoint" />
            <mxPoint x="622.1637583892618" y="160" as="targetPoint" />
          </mxGeometry>
        </mxCell>
        <mxCell id="5gEw2VkLYhCX0uYDMpLy-9" style="vsdxID=6;edgeStyle=none;startArrow=none;endArrow=none;startSize=5;endSize=5;strokeWidth=3;strokeColor=#000000;spacingTop=0;spacingBottom=0;spacingLeft=0;spacingRight=0;verticalAlign=middle;html=1;labelBackgroundColor=none;rounded=0;" parent="5gEw2VkLYhCX0uYDMpLy-128" edge="1">
          <mxGeometry relative="1" as="geometry">
            <Array as="points" />
            <mxPoint x="60.20939597315435" y="216" as="sourcePoint" />
            <mxPoint x="60.20939597315435" as="targetPoint" />
          </mxGeometry>
        </mxCell>
        <mxCell id="5gEw2VkLYhCX0uYDMpLy-10" style="vsdxID=7;edgeStyle=none;startArrow=none;endArrow=none;startSize=5;endSize=5;strokeWidth=3;strokeColor=#000000;spacingTop=0;spacingBottom=0;spacingLeft=0;spacingRight=0;verticalAlign=middle;html=1;labelBackgroundColor=none;rounded=0;" parent="5gEw2VkLYhCX0uYDMpLy-128" edge="1">
          <mxGeometry relative="1" as="geometry">
            <Array as="points" />
            <mxPoint x="137.1436241610738" y="216" as="sourcePoint" />
            <mxPoint x="137.1436241610738" as="targetPoint" />
          </mxGeometry>
        </mxCell>
        <mxCell id="5gEw2VkLYhCX0uYDMpLy-11" style="vsdxID=8;edgeStyle=none;startArrow=none;endArrow=none;startSize=5;endSize=5;strokeWidth=3;strokeColor=#000000;spacingTop=0;spacingBottom=0;spacingLeft=0;spacingRight=0;verticalAlign=middle;html=1;labelBackgroundColor=none;rounded=0;" parent="5gEw2VkLYhCX0uYDMpLy-128" edge="1">
          <mxGeometry relative="1" as="geometry">
            <Array as="points" />
            <mxPoint x="187.3181208053691" y="216" as="sourcePoint" />
            <mxPoint x="187.3181208053691" as="targetPoint" />
          </mxGeometry>
        </mxCell>
        <mxCell id="5gEw2VkLYhCX0uYDMpLy-12" style="vsdxID=9;edgeStyle=none;startArrow=none;endArrow=none;startSize=5;endSize=5;strokeWidth=3;strokeColor=#000000;spacingTop=0;spacingBottom=0;spacingLeft=0;spacingRight=0;verticalAlign=middle;html=1;labelBackgroundColor=none;rounded=0;" parent="5gEw2VkLYhCX0uYDMpLy-128" edge="1">
          <mxGeometry relative="1" as="geometry">
            <Array as="points" />
            <mxPoint x="220.76778523489932" y="216" as="sourcePoint" />
            <mxPoint x="220.76778523489932" as="targetPoint" />
          </mxGeometry>
        </mxCell>
        <mxCell id="5gEw2VkLYhCX0uYDMpLy-13" style="vsdxID=10;edgeStyle=none;startArrow=none;endArrow=none;startSize=5;endSize=5;strokeWidth=3;strokeColor=#000000;spacingTop=0;spacingBottom=0;spacingLeft=0;spacingRight=0;verticalAlign=middle;html=1;labelBackgroundColor=none;rounded=0;" parent="5gEw2VkLYhCX0uYDMpLy-128" edge="1">
          <mxGeometry relative="1" as="geometry">
            <Array as="points" />
            <mxPoint x="454.91543624161073" y="216" as="sourcePoint" />
            <mxPoint x="454.91543624161073" y="60" as="targetPoint" />
          </mxGeometry>
        </mxCell>
        <mxCell id="5gEw2VkLYhCX0uYDMpLy-14" style="vsdxID=11;edgeStyle=none;startArrow=none;endArrow=none;startSize=5;endSize=5;strokeColor=#000000;spacingTop=0;spacingBottom=0;spacingLeft=0;spacingRight=0;verticalAlign=middle;html=1;labelBackgroundColor=none;rounded=0;" parent="5gEw2VkLYhCX0uYDMpLy-128" edge="1">
          <mxGeometry relative="1" as="geometry">
            <Array as="points" />
            <mxPoint x="3.3449664429530204" y="200" as="sourcePoint" />
            <mxPoint x="220.76778523489932" y="200" as="targetPoint" />
          </mxGeometry>
        </mxCell>
        <mxCell id="5gEw2VkLYhCX0uYDMpLy-15" style="vsdxID=12;edgeStyle=none;startArrow=none;endArrow=none;startSize=5;endSize=5;strokeColor=#000000;spacingTop=0;spacingBottom=0;spacingLeft=0;spacingRight=0;verticalAlign=middle;html=1;labelBackgroundColor=none;rounded=0;" parent="5gEw2VkLYhCX0uYDMpLy-128" edge="1">
          <mxGeometry relative="1" as="geometry">
            <Array as="points" />
            <mxPoint x="3.3449664429530204" y="180" as="sourcePoint" />
            <mxPoint x="220.76778523489932" y="180" as="targetPoint" />
          </mxGeometry>
        </mxCell>
        <mxCell id="5gEw2VkLYhCX0uYDMpLy-16" style="vsdxID=13;edgeStyle=none;startArrow=none;endArrow=none;startSize=5;endSize=5;strokeColor=#000000;spacingTop=0;spacingBottom=0;spacingLeft=0;spacingRight=0;verticalAlign=middle;html=1;labelBackgroundColor=none;rounded=0;entryX=-0.001;entryY=0.789;entryDx=0;entryDy=0;entryPerimeter=0;" parent="5gEw2VkLYhCX0uYDMpLy-128" target="5gEw2VkLYhCX0uYDMpLy-51" edge="1">
          <mxGeometry relative="1" as="geometry">
            <Array as="points" />
            <mxPoint x="4.181208053691274" y="137" as="sourcePoint" />
            <mxPoint x="224.9489932885906" y="138" as="targetPoint" />
          </mxGeometry>
        </mxCell>
        <mxCell id="5gEw2VkLYhCX0uYDMpLy-17" style="vsdxID=14;edgeStyle=none;startArrow=none;endArrow=none;startSize=5;endSize=5;strokeColor=#000000;spacingTop=0;spacingBottom=0;spacingLeft=0;spacingRight=0;verticalAlign=middle;html=1;labelBackgroundColor=none;rounded=0;" parent="5gEw2VkLYhCX0uYDMpLy-128" edge="1">
          <mxGeometry relative="1" as="geometry">
            <Array as="points" />
            <mxPoint x="3.3449664429530204" y="120" as="sourcePoint" />
            <mxPoint x="220.76778523489932" y="120" as="targetPoint" />
          </mxGeometry>
        </mxCell>
        <mxCell id="5gEw2VkLYhCX0uYDMpLy-18" style="vsdxID=15;edgeStyle=none;startArrow=none;endArrow=none;startSize=5;endSize=5;strokeWidth=3;strokeColor=#000000;spacingTop=0;spacingBottom=0;spacingLeft=0;spacingRight=0;verticalAlign=middle;html=1;labelBackgroundColor=none;rounded=0;" parent="5gEw2VkLYhCX0uYDMpLy-128" edge="1">
          <mxGeometry relative="1" as="geometry">
            <Array as="points" />
            <mxPoint x="3.3449664429530204" y="100" as="sourcePoint" />
            <mxPoint x="220.76778523489932" y="100" as="targetPoint" />
          </mxGeometry>
        </mxCell>
        <mxCell id="5gEw2VkLYhCX0uYDMpLy-19" style="vsdxID=16;edgeStyle=none;startArrow=none;endArrow=none;startSize=5;endSize=5;strokeWidth=3;strokeColor=#000000;spacingTop=0;spacingBottom=0;spacingLeft=0;spacingRight=0;verticalAlign=middle;html=1;labelBackgroundColor=none;rounded=0;" parent="5gEw2VkLYhCX0uYDMpLy-128" edge="1">
          <mxGeometry relative="1" as="geometry">
            <Array as="points" />
            <mxPoint x="3.3449664429530204" y="80" as="sourcePoint" />
            <mxPoint x="220.76778523489932" y="80" as="targetPoint" />
          </mxGeometry>
        </mxCell>
        <mxCell id="5gEw2VkLYhCX0uYDMpLy-20" style="vsdxID=17;edgeStyle=none;startArrow=none;endArrow=none;startSize=5;endSize=5;strokeColor=#000000;spacingTop=0;spacingBottom=0;spacingLeft=0;spacingRight=0;verticalAlign=middle;html=1;labelBackgroundColor=none;rounded=0;" parent="5gEw2VkLYhCX0uYDMpLy-128" edge="1">
          <mxGeometry relative="1" as="geometry">
            <Array as="points" />
            <mxPoint x="3.3449664429530204" y="40" as="sourcePoint" />
            <mxPoint x="220.76778523489932" y="40" as="targetPoint" />
          </mxGeometry>
        </mxCell>
        <mxCell id="5gEw2VkLYhCX0uYDMpLy-21" style="vsdxID=18;edgeStyle=none;startArrow=none;endArrow=none;startSize=5;endSize=5;strokeColor=#000000;spacingTop=0;spacingBottom=0;spacingLeft=0;spacingRight=0;verticalAlign=middle;html=1;labelBackgroundColor=none;rounded=0;" parent="5gEw2VkLYhCX0uYDMpLy-128" edge="1">
          <mxGeometry relative="1" as="geometry">
            <Array as="points" />
            <mxPoint x="3.3449664429530204" y="20" as="sourcePoint" />
            <mxPoint x="220.76778523489932" y="20" as="targetPoint" />
          </mxGeometry>
        </mxCell>
        <mxCell id="5gEw2VkLYhCX0uYDMpLy-22" style="vsdxID=19;edgeStyle=none;startArrow=none;endArrow=none;startSize=5;endSize=5;strokeWidth=3;strokeColor=#000000;spacingTop=0;spacingBottom=0;spacingLeft=0;spacingRight=0;verticalAlign=middle;html=1;labelBackgroundColor=none;rounded=0;" parent="5gEw2VkLYhCX0uYDMpLy-128" edge="1">
          <mxGeometry relative="1" as="geometry">
            <Array as="points" />
            <mxPoint x="26.759731543624163" as="sourcePoint" />
            <mxPoint x="26.759731543624163" y="100" as="targetPoint" />
          </mxGeometry>
        </mxCell>
        <mxCell id="5gEw2VkLYhCX0uYDMpLy-23" style="vsdxID=20;edgeStyle=none;startArrow=none;endArrow=none;startSize=5;endSize=5;strokeWidth=3;strokeColor=#000000;spacingTop=0;spacingBottom=0;spacingLeft=0;spacingRight=0;verticalAlign=middle;html=1;labelBackgroundColor=none;rounded=0;" parent="5gEw2VkLYhCX0uYDMpLy-128" edge="1">
          <mxGeometry relative="1" as="geometry">
            <mxPoint as="offset" />
            <Array as="points" />
            <mxPoint x="454.91543624161073" y="140" as="sourcePoint" />
            <mxPoint x="622.1637583892618" y="140" as="targetPoint" />
          </mxGeometry>
        </mxCell>
        <mxCell id="5gEw2VkLYhCX0uYDMpLy-24" style="vsdxID=21;edgeStyle=none;startArrow=none;endArrow=none;startSize=5;endSize=5;strokeWidth=3;strokeColor=#000000;spacingTop=0;spacingBottom=0;spacingLeft=0;spacingRight=0;verticalAlign=middle;html=1;labelBackgroundColor=none;rounded=0;" parent="5gEw2VkLYhCX0uYDMpLy-128" edge="1">
          <mxGeometry relative="1" as="geometry">
            <mxPoint as="offset" />
            <Array as="points" />
            <mxPoint x="454.91543624161073" y="80" as="sourcePoint" />
            <mxPoint x="622.1637583892618" y="80" as="targetPoint" />
          </mxGeometry>
        </mxCell>
        <mxCell id="5gEw2VkLYhCX0uYDMpLy-25" style="vsdxID=22;edgeStyle=none;startArrow=none;endArrow=none;startSize=5;endSize=5;strokeColor=#000000;spacingTop=0;spacingBottom=0;spacingLeft=0;spacingRight=0;verticalAlign=middle;html=1;labelBackgroundColor=none;rounded=0;" parent="5gEw2VkLYhCX0uYDMpLy-128" edge="1">
          <mxGeometry relative="1" as="geometry">
            <Array as="points" />
            <mxPoint x="471.6402684563759" y="80" as="sourcePoint" />
            <mxPoint x="471.6402684563759" y="140" as="targetPoint" />
          </mxGeometry>
        </mxCell>
        <mxCell id="5gEw2VkLYhCX0uYDMpLy-26" style="vsdxID=23;edgeStyle=none;startArrow=none;endArrow=none;startSize=5;endSize=5;strokeColor=#000000;spacingTop=0;spacingBottom=0;spacingLeft=0;spacingRight=0;verticalAlign=middle;html=1;labelBackgroundColor=none;rounded=0;" parent="5gEw2VkLYhCX0uYDMpLy-128" edge="1">
          <mxGeometry relative="1" as="geometry">
            <Array as="points" />
            <mxPoint x="488.36510067114085" y="80" as="sourcePoint" />
            <mxPoint x="488.36510067114085" y="140" as="targetPoint" />
          </mxGeometry>
        </mxCell>
        <mxCell id="5gEw2VkLYhCX0uYDMpLy-27" style="vsdxID=24;edgeStyle=none;startArrow=none;endArrow=none;startSize=5;endSize=5;strokeWidth=3;strokeColor=#000000;spacingTop=0;spacingBottom=0;spacingLeft=0;spacingRight=0;verticalAlign=middle;html=1;labelBackgroundColor=none;rounded=0;" parent="5gEw2VkLYhCX0uYDMpLy-128" edge="1">
          <mxGeometry relative="1" as="geometry">
            <Array as="points" />
            <mxPoint x="505.0899328859059" y="60" as="sourcePoint" />
            <mxPoint x="505.0899328859059" y="140" as="targetPoint" />
          </mxGeometry>
        </mxCell>
        <mxCell id="5gEw2VkLYhCX0uYDMpLy-28" style="vsdxID=25;edgeStyle=none;startArrow=none;endArrow=none;startSize=5;endSize=5;strokeWidth=3;strokeColor=#000000;spacingTop=0;spacingBottom=0;spacingLeft=0;spacingRight=0;verticalAlign=middle;html=1;labelBackgroundColor=none;rounded=0;" parent="5gEw2VkLYhCX0uYDMpLy-128" edge="1">
          <mxGeometry relative="1" as="geometry">
            <Array as="points" />
            <mxPoint x="560.2818791946308" y="60" as="sourcePoint" />
            <mxPoint x="560.2818791946308" y="140" as="targetPoint" />
          </mxGeometry>
        </mxCell>
        <mxCell id="5gEw2VkLYhCX0uYDMpLy-29" style="vsdxID=26;edgeStyle=none;startArrow=none;endArrow=none;startSize=5;endSize=5;strokeWidth=3;strokeColor=#000000;spacingTop=0;spacingBottom=0;spacingLeft=0;spacingRight=0;verticalAlign=middle;html=1;labelBackgroundColor=none;rounded=0;" parent="5gEw2VkLYhCX0uYDMpLy-128" edge="1">
          <mxGeometry relative="1" as="geometry">
            <Array as="points" />
            <mxPoint x="521.8147651006711" y="140" as="sourcePoint" />
            <mxPoint x="521.8147651006711" y="160" as="targetPoint" />
          </mxGeometry>
        </mxCell>
        <mxCell id="5gEw2VkLYhCX0uYDMpLy-30" value="&lt;p style=&quot;margin-left: 0 ; margin-right: 0 ; margin-top: 0px ; margin-bottom: 0px ; text-indent: 0 ; direction: ltr&quot;&gt;&lt;font style=&quot;font-size: 14px ; font-family: &amp;#34;isocpeur&amp;#34; ; color: #000000 ; direction: ltr ; letter-spacing: 0px ; line-height: 120% ; opacity: 1&quot;&gt;&lt;i&gt;&lt;br&gt;&lt;/i&gt;&lt;/font&gt;&lt;/p&gt;" style="verticalAlign=middle;align=left;vsdxID=27;fillColor=none;gradientColor=none;strokeColor=none;labelBackgroundColor=none;rounded=0;html=1;whiteSpace=wrap;" parent="5gEw2VkLYhCX0uYDMpLy-128" vertex="1">
          <mxGeometry x="0.8362416107382551" y="181" width="66.06308724832215" height="19" as="geometry" />
        </mxCell>
        <mxCell id="5gEw2VkLYhCX0uYDMpLy-31" value="&lt;p style=&quot;margin-left: 0 ; margin-right: 0 ; margin-top: 0px ; margin-bottom: 0px ; text-indent: 0 ; direction: ltr&quot;&gt;&lt;font style=&quot;font-size: 14px ; font-family: &amp;#34;isocpeur&amp;#34; ; color: #000000 ; direction: ltr ; letter-spacing: 0px ; line-height: 120% ; opacity: 1&quot;&gt;&lt;i&gt;&lt;br&gt;&lt;/i&gt;&lt;/font&gt;&lt;/p&gt;" style="verticalAlign=middle;align=left;vsdxID=28;fillColor=none;gradientColor=none;strokeColor=none;labelBackgroundColor=none;rounded=0;html=1;whiteSpace=wrap;" parent="5gEw2VkLYhCX0uYDMpLy-128" vertex="1">
          <mxGeometry x="0.8362416107382551" y="200" width="54.35570469798657" height="19" as="geometry" />
        </mxCell>
        <mxCell id="5gEw2VkLYhCX0uYDMpLy-32" value="&lt;p style=&quot;margin-left: 0 ; margin-right: 0 ; margin-top: 0px ; margin-bottom: 0px ; text-indent: 0 ; direction: ltr&quot;&gt;&lt;font style=&quot;font-size: 14px ; font-family: &amp;#34;isocpeur&amp;#34; ; color: #000000 ; direction: ltr ; letter-spacing: 0px ; line-height: 120% ; opacity: 1&quot;&gt;&lt;i&gt;&lt;br&gt;&lt;/i&gt;&lt;/font&gt;&lt;/p&gt;" style="verticalAlign=middle;align=left;vsdxID=29;fillColor=none;gradientColor=none;strokeColor=none;labelBackgroundColor=none;rounded=0;html=1;whiteSpace=wrap;" parent="5gEw2VkLYhCX0uYDMpLy-128" vertex="1">
          <mxGeometry y="139" width="63.55436241610738" height="18" as="geometry" />
        </mxCell>
        <mxCell id="5gEw2VkLYhCX0uYDMpLy-33" value="&lt;p style=&quot;align:left;margin-left:0;margin-right:0;margin-top:0px;margin-bottom:0px;text-indent:0;valign:middle;direction:ltr;&quot;&gt;&lt;font style=&quot;font-size:14px;font-family:ISOCPEUR;color:#000000;direction:ltr;letter-spacing:0px;line-height:120%;opacity:1&quot;&gt;&lt;i&gt;Провер.&lt;br/&gt;&lt;/i&gt;&lt;/font&gt;&lt;/p&gt;" style="verticalAlign=middle;align=left;vsdxID=30;fillColor=none;gradientColor=none;strokeColor=none;labelBackgroundColor=none;rounded=0;html=1;whiteSpace=wrap;" parent="5gEw2VkLYhCX0uYDMpLy-128" vertex="1">
          <mxGeometry x="4.181208053691274" y="120" width="57.70067114093958" height="19" as="geometry" />
        </mxCell>
        <mxCell id="5gEw2VkLYhCX0uYDMpLy-34" value="&lt;p style=&quot;align:left;margin-left:0;margin-right:0;margin-top:0px;margin-bottom:0px;text-indent:0;valign:middle;direction:ltr;&quot;&gt;&lt;font style=&quot;font-size:14px;font-family:ISOCPEUR;color:#000000;direction:ltr;letter-spacing:0px;line-height:120%;opacity:1&quot;&gt;&lt;i&gt;Разраб.&lt;br/&gt;&lt;/i&gt;&lt;/font&gt;&lt;/p&gt;" style="verticalAlign=middle;align=left;vsdxID=31;fillColor=none;gradientColor=none;strokeColor=none;labelBackgroundColor=none;rounded=0;html=1;whiteSpace=wrap;" parent="5gEw2VkLYhCX0uYDMpLy-128" vertex="1">
          <mxGeometry x="4.181208053691274" y="101" width="57.70067114093958" height="17" as="geometry" />
        </mxCell>
        <mxCell id="5gEw2VkLYhCX0uYDMpLy-35" value="&lt;p style=&quot;align:center;margin-left:0;margin-right:0;margin-top:0px;margin-bottom:0px;text-indent:0;valign:middle;direction:ltr;&quot;&gt;&lt;font style=&quot;font-size:14px;font-family:ISOCPEUR;color:#000000;direction:ltr;letter-spacing:0px;line-height:120%;opacity:1&quot;&gt;&lt;i&gt;Изм&lt;br/&gt;&lt;/i&gt;&lt;/font&gt;&lt;/p&gt;" style="verticalAlign=middle;align=center;vsdxID=32;fillColor=none;gradientColor=none;strokeColor=none;labelBackgroundColor=none;rounded=0;html=1;whiteSpace=wrap;" parent="5gEw2VkLYhCX0uYDMpLy-128" vertex="1">
          <mxGeometry y="81" width="30.104697986577175" height="17" as="geometry" />
        </mxCell>
        <mxCell id="5gEw2VkLYhCX0uYDMpLy-36" value="&lt;p style=&quot;align:center;margin-left:0;margin-right:0;margin-top:0px;margin-bottom:0px;text-indent:0;valign:middle;direction:ltr;&quot;&gt;&lt;font style=&quot;font-size:14px;font-family:ISOCPEUR;color:#000000;direction:ltr;letter-spacing:0px;line-height:120%;opacity:1&quot;&gt;&lt;i&gt;Лист&lt;br/&gt;&lt;/i&gt;&lt;/font&gt;&lt;/p&gt;" style="verticalAlign=middle;align=center;vsdxID=33;fillColor=none;gradientColor=none;strokeColor=none;labelBackgroundColor=none;rounded=0;html=1;whiteSpace=wrap;" parent="5gEw2VkLYhCX0uYDMpLy-128" vertex="1">
          <mxGeometry x="25.087248322147648" y="81" width="35.12214765100671" height="17" as="geometry" />
        </mxCell>
        <mxCell id="5gEw2VkLYhCX0uYDMpLy-37" value="&lt;p style=&quot;align:center;margin-left:0;margin-right:0;margin-top:0px;margin-bottom:0px;text-indent:0;valign:middle;direction:ltr;&quot;&gt;&lt;font style=&quot;font-size:14px;font-family:ISOCPEUR;color:#000000;direction:ltr;letter-spacing:0px;line-height:120%;opacity:1&quot;&gt;&lt;i&gt;№ докум.&lt;br/&gt;&lt;/i&gt;&lt;/font&gt;&lt;/p&gt;" style="verticalAlign=middle;align=center;vsdxID=34;fillColor=none;gradientColor=none;strokeColor=none;labelBackgroundColor=none;rounded=0;html=1;whiteSpace=wrap;" parent="5gEw2VkLYhCX0uYDMpLy-128" vertex="1">
          <mxGeometry x="61.045637583892606" y="81" width="73.58926174496644" height="17" as="geometry" />
        </mxCell>
        <mxCell id="5gEw2VkLYhCX0uYDMpLy-38" value="&lt;p style=&quot;align:center;margin-left:0;margin-right:0;margin-top:0px;margin-bottom:0px;text-indent:0;valign:middle;direction:ltr;&quot;&gt;&lt;font style=&quot;font-size:14px;font-family:ISOCPEUR;color:#000000;direction:ltr;letter-spacing:0px;line-height:120%;opacity:1&quot;&gt;&lt;i&gt;Подп.&lt;br/&gt;&lt;/i&gt;&lt;/font&gt;&lt;/p&gt;" style="verticalAlign=middle;align=center;vsdxID=35;fillColor=none;gradientColor=none;strokeColor=none;labelBackgroundColor=none;rounded=0;html=1;whiteSpace=wrap;" parent="5gEw2VkLYhCX0uYDMpLy-128" vertex="1">
          <mxGeometry x="137.97986577181206" y="81" width="47.66577181208054" height="17" as="geometry" />
        </mxCell>
        <mxCell id="5gEw2VkLYhCX0uYDMpLy-39" value="&lt;p style=&quot;align:center;margin-left:0;margin-right:0;margin-top:0px;margin-bottom:0px;text-indent:0;valign:middle;direction:ltr;&quot;&gt;&lt;font style=&quot;font-size:14px;font-family:ISOCPEUR;color:#000000;direction:ltr;letter-spacing:0px;line-height:120%;opacity:1&quot;&gt;&lt;i&gt;Дата&lt;br/&gt;&lt;/i&gt;&lt;/font&gt;&lt;/p&gt;" style="verticalAlign=middle;align=center;vsdxID=36;fillColor=none;gradientColor=none;strokeColor=none;labelBackgroundColor=none;rounded=0;html=1;whiteSpace=wrap;" parent="5gEw2VkLYhCX0uYDMpLy-128" vertex="1">
          <mxGeometry x="185.64563758389264" y="81" width="35.12214765100671" height="17" as="geometry" />
        </mxCell>
        <mxCell id="5gEw2VkLYhCX0uYDMpLy-40" value="&lt;p style=&quot;align:center;margin-left:0;margin-right:0;margin-top:0px;margin-bottom:0px;text-indent:0;valign:middle;direction:ltr;&quot;&gt;&lt;font style=&quot;font-size:14px;font-family:ISOCPEUR;color:#000000;direction:ltr;letter-spacing:0px;line-height:120%;opacity:1&quot;&gt;&lt;i&gt;Лит.&lt;br/&gt;&lt;/i&gt;&lt;/font&gt;&lt;/p&gt;" style="verticalAlign=middle;align=center;vsdxID=37;fillColor=none;gradientColor=none;strokeColor=none;labelBackgroundColor=none;rounded=0;html=1;whiteSpace=wrap;" parent="5gEw2VkLYhCX0uYDMpLy-128" vertex="1">
          <mxGeometry x="454.91543624161073" y="61" width="47.66577181208054" height="17" as="geometry" />
        </mxCell>
        <mxCell id="5gEw2VkLYhCX0uYDMpLy-41" value="&lt;p style=&quot;align:center;margin-left:0;margin-right:0;margin-top:0px;margin-bottom:0px;text-indent:0;valign:middle;direction:ltr;&quot;&gt;&lt;font style=&quot;font-size:14px;font-family:ISOCPEUR;color:#000000;direction:ltr;letter-spacing:0px;line-height:120%;opacity:1&quot;&gt;&lt;i&gt;Масса&lt;br/&gt;&lt;/i&gt;&lt;/font&gt;&lt;/p&gt;" style="verticalAlign=middle;align=center;vsdxID=38;fillColor=none;gradientColor=none;strokeColor=none;labelBackgroundColor=none;rounded=0;html=1;whiteSpace=wrap;" parent="5gEw2VkLYhCX0uYDMpLy-128" vertex="1">
          <mxGeometry x="505.9261744966443" y="61" width="52.683221476510056" height="17" as="geometry" />
        </mxCell>
        <mxCell id="5gEw2VkLYhCX0uYDMpLy-42" value="&lt;p style=&quot;align:center;margin-left:0;margin-right:0;margin-top:0px;margin-bottom:0px;text-indent:0;valign:middle;direction:ltr;&quot;&gt;&lt;font style=&quot;font-size:14px;font-family:ISOCPEUR;color:#000000;direction:ltr;letter-spacing:0px;line-height:120%;opacity:1&quot;&gt;&lt;i&gt;Масштаб&lt;br/&gt;&lt;/i&gt;&lt;/font&gt;&lt;/p&gt;" style="verticalAlign=middle;align=center;vsdxID=39;fillColor=none;gradientColor=none;strokeColor=none;labelBackgroundColor=none;rounded=0;html=1;whiteSpace=wrap;" parent="5gEw2VkLYhCX0uYDMpLy-128" vertex="1">
          <mxGeometry x="561.1181208053691" y="61" width="59.373154362416116" height="17" as="geometry" />
        </mxCell>
        <mxCell id="5gEw2VkLYhCX0uYDMpLy-43" value="&lt;p style=&quot;align:center;margin-left:0;margin-right:0;margin-top:0px;margin-bottom:0px;text-indent:0;valign:middle;direction:ltr;&quot;&gt;&lt;font style=&quot;font-size:14px;font-family:ISOCPEUR;color:#000000;direction:ltr;letter-spacing:0px;line-height:120%;opacity:1&quot;&gt;&lt;i&gt;Листов &lt;br/&gt;&lt;/i&gt;&lt;/font&gt;&lt;/p&gt;" style="verticalAlign=middle;align=center;vsdxID=40;fillColor=none;gradientColor=none;strokeColor=none;labelBackgroundColor=none;rounded=0;html=1;whiteSpace=wrap;" parent="5gEw2VkLYhCX0uYDMpLy-128" vertex="1">
          <mxGeometry x="522.6510067114094" y="141" width="97.84026845637582" height="17" as="geometry" />
        </mxCell>
        <mxCell id="5gEw2VkLYhCX0uYDMpLy-44" value="&lt;p style=&quot;align:center;margin-left:0;margin-right:0;margin-top:0px;margin-bottom:0px;text-indent:0;valign:middle;direction:ltr;&quot;&gt;&lt;font style=&quot;font-size:14px;font-family:ISOCPEUR;color:#000000;direction:ltr;letter-spacing:0px;line-height:120%;opacity:1&quot;&gt;&lt;i&gt;Лист 1&lt;br/&gt;&lt;/i&gt;&lt;/font&gt;&lt;/p&gt;" style="verticalAlign=middle;align=center;vsdxID=41;fillColor=none;gradientColor=none;strokeColor=none;labelBackgroundColor=none;rounded=0;html=1;whiteSpace=wrap;" parent="5gEw2VkLYhCX0uYDMpLy-128" vertex="1">
          <mxGeometry x="455.7516778523489" y="141" width="63.55436241610738" height="17" as="geometry" />
        </mxCell>
        <mxCell id="5gEw2VkLYhCX0uYDMpLy-45" value="&lt;p style=&quot;margin-left: 0 ; margin-right: 0 ; margin-top: 0px ; margin-bottom: 0px ; text-indent: 0 ; direction: ltr&quot;&gt;&lt;font style=&quot;font-size: 14px ; font-family: &amp;quot;isocpeur&amp;quot; ; color: #000000 ; direction: ltr ; letter-spacing: 0px ; line-height: 120% ; opacity: 1&quot;&gt;&lt;i&gt;&lt;br&gt;&lt;/i&gt;&lt;/font&gt;&lt;/p&gt;" style="verticalAlign=middle;align=left;vsdxID=44;fillColor=none;gradientColor=none;shape=stencil(nZBLDoAgDERP0z3SIyjew0SURgSD+Lu9kMZoXLhwN9O+tukAlrNpJg1SzDH4QW/URgNYgZTkjA4UkwJUgGXng+6DX1zLfmoymdXo17xh5zmRJ6Q42BWCfc2oJfdAr+Yv+AP9Cb7OJ3H/2JG1HNGz/84klThPVCc=);strokeColor=none;labelBackgroundColor=none;rounded=0;html=1;whiteSpace=wrap;" parent="5gEw2VkLYhCX0uYDMpLy-128" vertex="1">
          <mxGeometry x="62.718120805369125" y="116" width="115.40134228187917" height="28" as="geometry" />
        </mxCell>
        <mxCell id="5gEw2VkLYhCX0uYDMpLy-46" value="&lt;p style=&quot;margin-left: 0 ; margin-right: 0 ; margin-top: 0px ; margin-bottom: 0px ; text-indent: 0 ; direction: ltr&quot;&gt;&lt;font face=&quot;isocpeur&quot;&gt;&lt;span style=&quot;font-size: 14px;&quot;&gt;&lt;i&gt;&lt;br&gt;&lt;/i&gt;&lt;/span&gt;&lt;/font&gt;&lt;/p&gt;" style="verticalAlign=middle;align=left;vsdxID=45;fillColor=none;gradientColor=none;shape=stencil(nZBLDoAgDERP0z3SIyjew0SURgSD+Lu9kMZoXLhwN9O+tukAlrNpJg1SzDH4QW/URgNYgZTkjA4UkwJUgGXng+6DX1zLfmoymdXo17xh5zmRJ6Q42BWCfc2oJfdAr+Yv+AP9Cb7OJ3H/2JG1HNGz/84klThPVCc=);strokeColor=none;labelBackgroundColor=none;rounded=0;html=1;whiteSpace=wrap;" parent="5gEw2VkLYhCX0uYDMpLy-128" vertex="1">
          <mxGeometry x="62.718120805369125" y="97" width="71.91677852348992" height="28" as="geometry" />
        </mxCell>
        <mxCell id="5gEw2VkLYhCX0uYDMpLy-48" value="&lt;p style=&quot;margin-left: 0 ; margin-right: 0 ; margin-top: 0px ; margin-bottom: 0px ; text-indent: 0 ; direction: ltr&quot;&gt;&lt;font style=&quot;font-size: 14px ; font-family: &amp;#34;isocpeur&amp;#34; ; color: #000000 ; direction: ltr ; letter-spacing: 0px ; line-height: 120% ; opacity: 1&quot;&gt;&lt;i&gt;&lt;br&gt;&lt;/i&gt;&lt;/font&gt;&lt;/p&gt;" style="verticalAlign=middle;align=left;vsdxID=79;fillColor=none;gradientColor=none;shape=stencil(nZBLDoAgDERP0z3SIyjew0SURgSD+Lu9kMZoXLhwN9O+tukAlrNpJg1SzDH4QW/URgNYgZTkjA4UkwJUgGXng+6DX1zLfmoymdXo17xh5zmRJ6Q42BWCfc2oJfdAr+Yv+AP9Cb7OJ3H/2JG1HNGz/84klThPVCc=);strokeColor=none;labelBackgroundColor=none;rounded=0;html=1;whiteSpace=wrap;" parent="5gEw2VkLYhCX0uYDMpLy-128" vertex="1">
          <mxGeometry x="58.53691275167783" y="176" width="125.43624161073825" height="28" as="geometry" />
        </mxCell>
        <mxCell id="5gEw2VkLYhCX0uYDMpLy-49" value="&lt;p style=&quot;margin-left: 0 ; margin-right: 0 ; margin-top: 0px ; margin-bottom: 0px ; text-indent: 0 ; direction: ltr&quot;&gt;&lt;font style=&quot;font-size: 14px ; font-family: &amp;#34;isocpeur&amp;#34; ; color: #000000 ; direction: ltr ; letter-spacing: 0px ; line-height: 120% ; opacity: 1&quot;&gt;&lt;i&gt;&lt;br&gt;&lt;/i&gt;&lt;/font&gt;&lt;/p&gt;" style="verticalAlign=middle;align=left;vsdxID=81;fillColor=none;gradientColor=none;shape=stencil(nZBLDoAgDERP0z3SIyjew0SURgSD+Lu9kMZoXLhwN9O+tukAlrNpJg1SzDH4QW/URgNYgZTkjA4UkwJUgGXng+6DX1zLfmoymdXo17xh5zmRJ6Q42BWCfc2oJfdAr+Yv+AP9Cb7OJ3H/2JG1HNGz/84klThPVCc=);strokeColor=none;labelBackgroundColor=none;rounded=0;html=1;whiteSpace=wrap;" parent="5gEw2VkLYhCX0uYDMpLy-128" vertex="1">
          <mxGeometry x="57.70067114093958" y="195" width="117.07382550335566" height="28" as="geometry" />
        </mxCell>
        <mxCell id="Jy05K-5VUKGtNTGPZaeV-3" style="edgeStyle=orthogonalEdgeStyle;rounded=0;orthogonalLoop=1;jettySize=auto;html=1;" edge="1" parent="5gEw2VkLYhCX0uYDMpLy-128" source="5gEw2VkLYhCX0uYDMpLy-50" target="pFVczQF4dQolvL2ULzKl-30">
          <mxGeometry relative="1" as="geometry" />
        </mxCell>
        <mxCell id="5gEw2VkLYhCX0uYDMpLy-50" value="&lt;p style=&quot;align:center;margin-left:0;margin-right:0;margin-top:0px;margin-bottom:0px;text-indent:0;valign:middle;direction:ltr;&quot;&gt;&lt;font style=&quot;font-size:19px;font-family:ISOCPEUR;color:#000000;direction:ltr;letter-spacing:0px;line-height:120%;opacity:1&quot;&gt;&lt;i&gt;УО ГГПК&lt;br/&gt;&lt;/i&gt;&lt;/font&gt;&lt;/p&gt;" style="verticalAlign=middle;align=center;vsdxID=48;fillColor=none;gradientColor=none;strokeColor=none;labelBackgroundColor=none;rounded=0;html=1;whiteSpace=wrap;" parent="5gEw2VkLYhCX0uYDMpLy-128" vertex="1">
          <mxGeometry x="455.7516778523489" y="159" width="167.248322147651" height="57" as="geometry" />
        </mxCell>
        <mxCell id="5gEw2VkLYhCX0uYDMpLy-51" value="&lt;font style=&quot;font-size: 16px ; font-family: &amp;quot;isocpeur&amp;quot; ; color: #000000 ; direction: ltr ; letter-spacing: 0px ; line-height: 120% ; opacity: 1&quot;&gt;&lt;i&gt;Модель данных&lt;br&gt;&lt;/i&gt;&lt;/font&gt;" style="verticalAlign=middle;align=center;vsdxID=43;fillColor=none;gradientColor=none;shape=stencil(nZBLDoAgDERP0z3SIyjew0SURgSD+Lu9kMZoXLhwN9O+tukAlrNpJg1SzDH4QW/URgNYgZTkjA4UkwJUgGXng+6DX1zLfmoymdXo17xh5zmRJ6Q42BWCfc2oJfdAr+Yv+AP9Cb7OJ3H/2JG1HNGz/84klThPVCc=);strokeColor=none;labelBackgroundColor=none;rounded=0;html=1;whiteSpace=wrap;" parent="5gEw2VkLYhCX0uYDMpLy-128" vertex="1">
          <mxGeometry x="219.9315436241611" y="62" width="233.3114093959732" height="95" as="geometry" />
        </mxCell>
        <mxCell id="Jy05K-5VUKGtNTGPZaeV-2" value="" style="edgeStyle=orthogonalEdgeStyle;rounded=0;orthogonalLoop=1;jettySize=auto;html=1;" edge="1" parent="5gEw2VkLYhCX0uYDMpLy-128" source="pFVczQF4dQolvL2ULzKl-30" target="5gEw2VkLYhCX0uYDMpLy-51">
          <mxGeometry relative="1" as="geometry" />
        </mxCell>
        <mxCell id="pFVczQF4dQolvL2ULzKl-30" value="&lt;font face=&quot;isocpeur&quot; style=&quot;direction: ltr; line-height: 120%; opacity: 1;&quot;&gt;&lt;i&gt;&lt;div style=&quot;&quot;&gt;Разработка программного обеспечения для ИП Севрук&lt;/div&gt;&lt;div style=&quot;&quot;&gt;Т.С.&lt;/div&gt;&lt;/i&gt;&lt;/font&gt;" style="verticalAlign=middle;align=center;vsdxID=43;fillColor=none;gradientColor=none;shape=stencil(nZBLDoAgDERP0z3SIyjew0SURgSD+Lu9kMZoXLhwN9O+tukAlrNpJg1SzDH4QW/URgNYgZTkjA4UkwJUgGXng+6DX1zLfmoymdXo17xh5zmRJ6Q42BWCfc2oJfdAr+Yv+AP9Cb7OJ3H/2JG1HNGz/84klThPVCc=);strokeColor=none;labelBackgroundColor=none;rounded=0;html=1;whiteSpace=wrap;fontSize=13;" parent="5gEw2VkLYhCX0uYDMpLy-128" vertex="1">
          <mxGeometry x="236.59" y="195" width="213.41" as="geometry" />
        </mxCell>
        <mxCell id="5gEw2VkLYhCX0uYDMpLy-139" value="" style="verticalAlign=middle;align=center;vsdxID=42;fillColor=none;gradientColor=none;shape=stencil(nZBLDoAgDERP0z3SIyjew0SURgSD+Lu9kMZoXLhwN9O+tukAlrNpJg1SzDH4QW/URgNYgZTkjA4UkwJUgGXng+6DX1zLfmoymdXo17xh5zmRJ6Q42BWCfc2oJfdAr+Yv+AP9Cb7OJ3H/2JG1HNGz/84klThPVCc=);strokeColor=#000000;strokeWidth=3;spacingTop=-1;spacingBottom=-1;spacingLeft=-1;spacingRight=-1;labelBackgroundColor=none;rounded=0;html=1;whiteSpace=wrap;" parent="1" vertex="1">
          <mxGeometry x="3400.06252499208" y="2359.9959712230216" width="376.1166307508446" height="62.77338129496403" as="geometry" />
        </mxCell>
        <mxCell id="5gEw2VkLYhCX0uYDMpLy-141" value="&lt;p style=&quot;margin-left: 0 ; margin-right: 0 ; margin-top: 17px ; margin-bottom: 0px ; text-indent: 0 ; direction: ltr&quot;&gt;&lt;font style=&quot;font-size: 19px ; font-family: &amp;quot;isocpeur&amp;quot; ; color: #000000 ; direction: ltr ; letter-spacing: 0px ; line-height: 120% ; opacity: 1&quot;&gt;&lt;i&gt;КП 2-40 01 01&lt;/i&gt;&lt;/font&gt;&lt;font style=&quot;font-size: 19px ; font-family: &amp;quot;isocpeur&amp;quot; ; color: #000000 ; direction: ltr ; letter-spacing: 0px ; line-height: 120% ; opacity: 1&quot;&gt;&lt;i&gt;.3&lt;/i&gt;&lt;/font&gt;&lt;font style=&quot;font-size: 19px ; font-family: &amp;quot;isocpeur&amp;quot; ; color: #000000 ; direction: ltr ; letter-spacing: 0px ; line-height: 120% ; opacity: 1&quot;&gt;&lt;i&gt;5&lt;/i&gt;&lt;/font&gt;&lt;font style=&quot;font-size: 19px ; font-family: &amp;quot;isocpeur&amp;quot; ; color: #000000 ; direction: ltr ; letter-spacing: 0px ; line-height: 120% ; opacity: 1&quot;&gt;&lt;i&gt;.35&lt;/i&gt;&lt;/font&gt;&lt;font style=&quot;font-size: 19px ; font-family: &amp;quot;isocpeur&amp;quot; ; color: #000000 ; direction: ltr ; letter-spacing: 0px ; line-height: 120% ; opacity: 1&quot;&gt;&lt;i&gt;.16.&lt;/i&gt;&lt;/font&gt;&lt;font style=&quot;font-size: 19px ; font-family: &amp;quot;isocpeur&amp;quot; ; color: #000000 ; direction: ltr ; letter-spacing: 0px ; line-height: 120% ; opacity: 1&quot;&gt;&lt;i&gt;24&lt;/i&gt;&lt;/font&gt;&lt;font style=&quot;font-size: 19px ; font-family: &amp;quot;isocpeur&amp;quot; ; color: #000000 ; direction: ltr ; letter-spacing: 0px ; line-height: 120% ; opacity: 1&quot;&gt;&lt;i&gt;&amp;nbsp;ГЧ&lt;br&gt;&lt;/i&gt;&lt;/font&gt;&lt;/p&gt;" style="text;vsdxID=47;fillColor=none;gradientColor=none;strokeColor=none;labelBackgroundColor=none;rounded=0;html=1;whiteSpace=wrap;verticalAlign=middle;align=center;rotation=180.09;;html=1;" parent="1" vertex="1">
          <mxGeometry x="3396.64" y="2375.45" width="382.94" height="47.33" as="geometry" />
        </mxCell>
        <mxCell id="pFVczQF4dQolvL2ULzKl-15" value="Размер" style="swimlane;childLayout=stackLayout;horizontal=1;startSize=40;horizontalStack=0;rounded=0;fontSize=35;fontStyle=0;strokeWidth=2;resizeParent=0;resizeLast=1;shadow=0;dashed=0;align=center;arcSize=50;" parent="1" vertex="1">
          <mxGeometry x="3740" y="3530" width="320" height="200" as="geometry">
            <mxRectangle x="4050" y="3250" width="90" height="30" as="alternateBounds" />
          </mxGeometry>
        </mxCell>
        <mxCell id="pFVczQF4dQolvL2ULzKl-16" value="id&#xa;Размер&#xa;id_Продукта" style="align=left;strokeColor=none;fillColor=none;spacingLeft=4;fontSize=35;verticalAlign=top;resizable=0;rotatable=0;part=1;" parent="pFVczQF4dQolvL2ULzKl-15" vertex="1">
          <mxGeometry y="40" width="320" height="160" as="geometry" />
        </mxCell>
        <mxCell id="pFVczQF4dQolvL2ULzKl-25" value="" style="edgeStyle=orthogonalEdgeStyle;fontSize=12;html=1;endArrow=ERmandOne;startArrow=ERmandOne;jumpSize=6;strokeWidth=2;rounded=0;curved=0;endSize=14;targetPerimeterSpacing=0;startSize=14;" parent="1" source="-r7e9k4AS8WKLodCx9vt-10" target="pFVczQF4dQolvL2ULzKl-16" edge="1">
          <mxGeometry width="100" height="100" relative="1" as="geometry">
            <mxPoint x="4543" y="3476" as="sourcePoint" />
            <mxPoint x="4177" y="3560" as="targetPoint" />
            <Array as="points">
              <mxPoint x="4427" y="3470" />
              <mxPoint x="4427" y="3370" />
            </Array>
          </mxGeometry>
        </mxCell>
        <mxCell id="-r7e9k4AS8WKLodCx9vt-9" value="Товары" style="swimlane;childLayout=stackLayout;horizontal=1;startSize=50;horizontalStack=0;rounded=0;fontSize=35;fontStyle=0;strokeWidth=2;resizeParent=0;resizeLast=1;shadow=0;dashed=0;align=center;arcSize=50;" parent="1" vertex="1">
          <mxGeometry x="4350" y="3080" width="607" height="740" as="geometry">
            <mxRectangle x="4050" y="3250" width="90" height="30" as="alternateBounds" />
          </mxGeometry>
        </mxCell>
        <mxCell id="-r7e9k4AS8WKLodCx9vt-10" value="id&#xa;Наименование&#xa;Цена&#xa;Картинка&#xa;&#xa;" style="align=left;strokeColor=none;fillColor=none;spacingLeft=4;fontSize=35;verticalAlign=top;resizable=0;rotatable=0;part=1;" parent="-r7e9k4AS8WKLodCx9vt-9" vertex="1">
          <mxGeometry y="50" width="607" height="690" as="geometry" />
        </mxCell>
        <mxCell id="-r7e9k4AS8WKLodCx9vt-12" value="Корзина" style="swimlane;childLayout=stackLayout;horizontal=1;startSize=50;horizontalStack=0;rounded=0;fontSize=35;fontStyle=0;strokeWidth=2;resizeParent=0;resizeLast=1;shadow=0;dashed=0;align=center;arcSize=50;" parent="1" vertex="1">
          <mxGeometry x="5527" y="2630" width="483" height="460" as="geometry">
            <mxRectangle x="4050" y="3250" width="90" height="30" as="alternateBounds" />
          </mxGeometry>
        </mxCell>
        <mxCell id="-r7e9k4AS8WKLodCx9vt-13" value="id&#xa;количество&#xa;id_Продукта" style="align=left;strokeColor=none;fillColor=none;spacingLeft=4;fontSize=35;verticalAlign=top;resizable=0;rotatable=0;part=1;" parent="-r7e9k4AS8WKLodCx9vt-12" vertex="1">
          <mxGeometry y="50" width="483" height="410" as="geometry" />
        </mxCell>
        <mxCell id="-r7e9k4AS8WKLodCx9vt-14" value="Категории" style="swimlane;childLayout=stackLayout;horizontal=1;startSize=50;horizontalStack=0;rounded=0;fontSize=35;fontStyle=0;strokeWidth=2;resizeParent=0;resizeLast=1;shadow=0;dashed=0;align=center;arcSize=50;" parent="1" vertex="1">
          <mxGeometry x="5527" y="3140" width="479.67" height="390" as="geometry">
            <mxRectangle x="4050" y="3250" width="90" height="30" as="alternateBounds" />
          </mxGeometry>
        </mxCell>
        <mxCell id="-r7e9k4AS8WKLodCx9vt-15" value="id&#xa;id_Продукта &#xa;Категория" style="align=left;strokeColor=none;fillColor=none;spacingLeft=4;fontSize=35;verticalAlign=top;resizable=0;rotatable=0;part=1;" parent="-r7e9k4AS8WKLodCx9vt-14" vertex="1">
          <mxGeometry y="50" width="479.67" height="340" as="geometry" />
        </mxCell>
        <mxCell id="-r7e9k4AS8WKLodCx9vt-16" value="Цвет" style="swimlane;childLayout=stackLayout;horizontal=1;startSize=50;horizontalStack=0;rounded=0;fontSize=35;fontStyle=0;strokeWidth=2;resizeParent=0;resizeLast=1;shadow=0;dashed=0;align=center;arcSize=50;" parent="1" vertex="1">
          <mxGeometry x="5527" y="3580" width="493" height="500" as="geometry">
            <mxRectangle x="4050" y="3250" width="90" height="30" as="alternateBounds" />
          </mxGeometry>
        </mxCell>
        <mxCell id="-r7e9k4AS8WKLodCx9vt-17" value="id&#xa;Цвет&#xa;id_Продукта" style="align=left;strokeColor=none;fillColor=none;spacingLeft=4;fontSize=35;verticalAlign=top;resizable=0;rotatable=0;part=1;" parent="-r7e9k4AS8WKLodCx9vt-16" vertex="1">
          <mxGeometry y="50" width="493" height="450" as="geometry" />
        </mxCell>
        <mxCell id="-r7e9k4AS8WKLodCx9vt-32" value="" style="edgeStyle=orthogonalEdgeStyle;fontSize=12;html=1;endArrow=ERmandOne;startArrow=ERmandOne;jumpSize=6;strokeWidth=2;rounded=0;curved=0;endSize=14;startSize=14;" parent="1" source="-r7e9k4AS8WKLodCx9vt-13" edge="1">
          <mxGeometry width="100" height="100" relative="1" as="geometry">
            <mxPoint x="5097" y="3975.89" as="sourcePoint" />
            <mxPoint x="4964" y="3590" as="targetPoint" />
            <Array as="points">
              <mxPoint x="5037" y="3020" />
              <mxPoint x="5037" y="3590" />
            </Array>
          </mxGeometry>
        </mxCell>
        <mxCell id="-r7e9k4AS8WKLodCx9vt-33" value="" style="edgeStyle=orthogonalEdgeStyle;fontSize=12;html=1;endArrow=ERmandOne;startArrow=ERmany;jumpSize=6;strokeWidth=2;rounded=0;curved=0;exitX=0;exitY=0.077;exitDx=0;exitDy=0;exitPerimeter=0;startFill=0;endSize=14;startSize=14;" parent="1" source="-r7e9k4AS8WKLodCx9vt-15" edge="1">
          <mxGeometry width="100" height="100" relative="1" as="geometry">
            <mxPoint x="5137" y="2980" as="sourcePoint" />
            <mxPoint x="4963" y="3640" as="targetPoint" />
            <Array as="points">
              <mxPoint x="5137" y="3273" />
              <mxPoint x="5137" y="3640" />
            </Array>
          </mxGeometry>
        </mxCell>
        <mxCell id="-r7e9k4AS8WKLodCx9vt-34" value="" style="edgeStyle=orthogonalEdgeStyle;fontSize=12;html=1;endArrow=ERmandOne;startArrow=ERmandOne;jumpSize=6;strokeWidth=2;rounded=0;curved=0;entryX=1.003;entryY=0.949;entryDx=0;entryDy=0;entryPerimeter=0;exitX=-0.004;exitY=0.174;exitDx=0;exitDy=0;exitPerimeter=0;endSize=14;startSize=14;" parent="1" source="-r7e9k4AS8WKLodCx9vt-17" target="-r7e9k4AS8WKLodCx9vt-10" edge="1">
          <mxGeometry width="100" height="100" relative="1" as="geometry">
            <mxPoint x="5197" y="2980" as="sourcePoint" />
            <mxPoint x="4974" y="3600" as="targetPoint" />
            <Array as="points">
              <mxPoint x="5427" y="3718" />
              <mxPoint x="5427" y="3690" />
              <mxPoint x="5067" y="3690" />
              <mxPoint x="5067" y="3799" />
              <mxPoint x="4959" y="3799" />
            </Array>
          </mxGeometry>
        </mxCell>
      </root>
    </mxGraphModel>
  </diagram>
</mxfile>
